<svg xmlns="http://www.w3.org/2000/svg" viewBox="0 0 647.8 275.1"><defs><style>.cls-1{fill:#fff;}</style></defs><title>icon-nav-logoAsset 4</title><g id="Layer_2" data-name="Layer 2"><g id="Layer_1-2" data-name="Layer 1"><path class="cls-1" d="M358.87,162.78,353,146.51H321.8L316,162.78h-5.45l24.64-67h4.52l24.64,67Zm-21.45-60.2L323.4,142h28Z"/><path class="cls-1" d="M407.1,163.35c-13.45,0-23-9.22-23-22.29V95.81h5.08v44.59c0,11.1,7.15,18.44,17.87,18.44S425,151.5,425,140.39V95.81H430v45.25C430,154.13,420.55,163.35,407.1,163.35Z"/><path class="cls-1" d="M496.88,155.64a23.89,23.89,0,0,1-34.34.85c-6.11-6.12-6.21-12-6.21-27.19s.09-21.07,6.21-27.19a23.62,23.62,0,0,1,16.74-6.87c11.76,0,20.79,7.71,22.86,19.57h-5.08c-2-9.22-8.75-15.05-17.78-15.05a17.78,17.78,0,0,0-12.7,5.18c-4.8,4.8-5.17,10-5.17,24.36s.38,19.57,5.17,24.36a17.78,17.78,0,0,0,12.7,5.18,18,18,0,0,0,13.92-6.49c2.92-3.57,4-7.53,4-13.26v-6h-18v-4.52h23v10.91C502.33,146.42,500.83,151.4,496.88,155.64Z"/><path class="cls-1" d="M551,163.35c-13.45,0-23-9.22-23-22.29V95.81h5.08v44.59c0,11.1,7.15,18.44,17.87,18.44s17.87-7.34,17.87-18.44V95.81H574v45.25C574,154.13,564.47,163.35,551,163.35Z"/><path class="cls-1" d="M641.87,162.78l-16-30.85H607.44v30.85h-5.08v-67h25.49c10.91,0,19.19,6.3,19.19,18,0,10-6,16.46-15.42,18.06l16.18,30.95ZM627.2,100.32H607.44v27.09H627.2c8.56,0,14.77-4.33,14.77-13.55S635.76,100.32,627.2,100.32Z"/><path class="cls-1" d="M244.9,200,125.32,1.43a3,3,0,0,0-5.05,0L.43,199.23a3,3,0,0,0,1,4.07l119.84,71.38a3,3,0,0,0,3,0l119.58-70.59a3,3,0,0,0,1.36-1.82A2.92,2.92,0,0,0,244.9,200Zm-79.41-47.9.42,2.6.14,1c1.78,14.33,7.16,18.51,20.49,24.62l.08,0L235,202.48,125.81,266.94V230c0-13.54.79-16,12.4-22.6,2.28-1.3,4.59-2.66,7.12-4.15l1.58-.94a48,48,0,0,0,17.47-16.9c.16-.26,1.32-2.07,1.47-2.33a12.25,12.25,0,0,1-2.5-1.88,10.37,10.37,0,0,1-2-2.54,42.81,42.81,0,0,1-17,18.35l-1.79,1.06c-2.49,1.47-5,2.9-7.31,4.2C121,210.46,119.9,215.45,119.9,230V267L9.71,201.35,56.86,180l3.07-1.37a22.89,22.89,0,0,1,7.88-2.29c3-.19,7.48,0,9.91,3.21l6.74,8.83a49,49,0,0,0,20.12,16.1l.07,0h0a43.32,43.32,0,0,0,6.73,2,19.59,19.59,0,0,1,1.89-2.9c.49-.64,1.22-1.42,1.91-2.16a45.21,45.21,0,0,1-10.52-3.37h0a43,43,0,0,1-15.6-12.75c-.06-.07-.2-.25-.26-.33l-.29-.42c-.41-.57-.83-1.12-1.22-1.71-1.09-1.52-2.75-3.79-5.07-6.82a13.3,13.3,0,0,0-6.06-4.27h0a24.19,24.19,0,0,0-8.56-1.32c-4.79.16-10.1,2.8-10.21,2.86l-1.66.74h0l-.12.05L51.33,176s0,0-.05.05L10.07,194.72,119.8,13.58V90.25c0,13.25-.94,16.14-12.65,22.84-.9.51-1.85,1-2.83,1.46l-1.51.77c-.38.18-.75.39-1.12.58h0a48.8,48.8,0,0,0-27,41.19c1,.28,2.54.73,3.39,1a15.14,15.14,0,0,1,2.36,1.12,42.9,42.9,0,0,1,24-38.06h0l.11,0c.85-.45,1.67-.86,2.48-1.25,1.09-.54,2.14-1.06,3.15-1.64,2.1-1.2,3.84-2.33,5.43-3.43.43-.29.79-.6,1.18-.89a30.65,30.65,0,0,0,2.37-2,9.44,9.44,0,0,0,1-1c4.69-4.92,5.61-10.47,5.61-20.66V13.55L235.8,196.36l-48.58-22.19h0c-10.77-4.93-14-9.05-15.49-20.9,0-.16-.07-.57-.1-.72a48.63,48.63,0,0,0-34.44-39.47l-2.43-.73a14.37,14.37,0,0,1-1.2,2.78,14.86,14.86,0,0,1-1.92,2.62l2.26.52A42.73,42.73,0,0,1,165.49,152.13Z"/></g></g></svg>