<?xml version="1.0" encoding="UTF-8"?>
<svg width="24px" height="24px" viewBox="0 0 24 24" version="1.1" xmlns="http://www.w3.org/2000/svg" xmlns:xlink="http://www.w3.org/1999/xlink">
    <!-- Generator: Sketch 45.1 (43504) - http://www.bohemiancoding.com/sketch -->
    <title>Icon/Checkbox on</title>
    <desc>Created with Sketch.</desc>
    <defs>
        <polygon id="path-1" points="0 9.14637512e-05 0 21.9513003 21.9510259 21.9513003 21.9510259 9.14637512e-05"></polygon>
    </defs>
    <g id="Symbols" stroke="none" stroke-width="1" fill="none" fill-rule="evenodd">
        <g id="Icon/Checkbox-on">
            <g id="Page-1" transform="translate(1.000000, 1.000000)">
                <mask id="mask-2" fill="white">
                    <use xlink:href="#path-1"></use>
                </mask>
                <g id="Clip-2"></g>
                <path d="M19.5427853,5.88761313 L9.53848022,16.6858236 C9.44884574,16.7818605 9.32628432,16.8321656 9.20280825,16.8321656 C9.10860059,16.8321656 9.01347829,16.8028972 8.93299019,16.7443604 L2.47382008,12.0248308 C2.26985591,11.8757449 2.22595331,11.5894634 2.37412459,11.3854992 C2.5232105,11.1824497 2.80949204,11.1376324 3.01345621,11.2858037 L9.14335681,15.7656983 L18.872356,5.26565962 C19.0433932,5.0799882 19.3324187,5.06901255 19.5180901,5.24096441 C19.7037615,5.41291626 19.7147372,5.70194171 19.5427853,5.88761313 M21.0363884,9.14637512e-05 L0.91436312,9.14637512e-05 C0.409483214,9.14637512e-05 -0.000274391254,0.409849069 -0.000274391254,0.914728975 L-0.000274391254,21.0367542 C-0.000274391254,21.5416341 0.409483214,21.9513917 0.91436312,21.9513917 L21.0363884,21.9513917 C21.5421829,21.9513917 21.9510259,21.5416341 21.9510259,21.0367542 L21.9510259,0.914728975 C21.9510259,0.409849069 21.5421829,9.14637512e-05 21.0363884,9.14637512e-05" id="Fill-1" fill="#DBDAE1" mask="url(#mask-2)"></path>
            </g>
        </g>
    </g>
</svg>