<?xml version="1.0" encoding="UTF-8"?>
<svg width="48px" height="48px" viewBox="0 0 48 48" version="1.1" xmlns="http://www.w3.org/2000/svg" xmlns:xlink="http://www.w3.org/1999/xlink">
    <!-- Generator: Sketch 45.1 (43504) - http://www.bohemiancoding.com/sketch -->
    <title>Icon/Key</title>
    <desc>Created with Sketch.</desc>
    <defs>
        <polygon id="path-1" points="4.03879882e-20 0.00014233999 4.03879882e-20 29.7713507 45.7342202 29.7713507 45.7342202 0.00014233999"></polygon>
    </defs>
    <g id="Symbols" stroke="none" stroke-width="1" fill="none" fill-rule="evenodd">
        <g id="Icon/Key">
            <g id="Page-1" transform="translate(24.013572, 26.900381) rotate(4.000000) translate(-24.013572, -26.900381) translate(1.013572, 11.567048)">
                <mask id="mask-2" fill="white">
                    <use xlink:href="#path-1"></use>
                </mask>
                <g id="Clip-2"></g>
                <path d="M16.2211723,5.13322314 C14.1000808,1.33244076 9.18141328,-0.0876159072 5.27896247,1.97529449 C1.37353156,4.0396495 -0.0874661559,8.77509787 2.01350965,12.5607118 C4.12342578,16.3636611 9.00335185,17.7801062 12.9542294,15.7366981 C16.8700907,13.7113477 18.3422638,8.93400553 16.2211723,5.13322314 M44.5575247,19.6891651 C41.7554786,18.8816253 39.0286802,18.0950323 36.2810211,17.3026609 C36.2497299,17.3936717 36.2050283,17.5171863 36.1662869,17.6414232 C35.4667067,19.9203035 34.7678715,22.1991839 34.0675462,24.4773419 C34.0317849,24.5929111 34.004964,24.7149811 33.9446168,24.8182711 C33.8052967,25.0573549 33.5817887,25.1519772 33.3105989,25.0667449 C33.0423892,24.9815126 32.9127545,24.785045 32.954476,24.5062342 C32.9716117,24.3877758 33.0110981,24.2714843 33.0468594,24.1566374 C33.7419695,21.8885916 34.4370795,19.6219905 35.1359148,17.3553894 C35.1746562,17.2282633 35.2409635,17.1098048 35.2797049,17.0224056 C29.3813271,15.320649 23.5395713,13.6362278 17.6940904,11.9503619 C15.8069373,16.7652641 10.3838867,18.7523322 6.04112497,17.1914256 C1.4606997,15.5452866 -0.947227177,10.9940267 0.34837457,6.37414753 C1.55531812,2.0720837 6.15883922,-0.670518109 10.8167473,0.142800205 C15.7614907,1.00595774 19.2757825,5.87358839 18.0211572,10.9369644 C18.1634574,10.957189 18.3169329,10.9615229 18.459233,11.0026944 C27.3138775,13.5538847 36.1662869,16.1079642 45.0186963,18.6613215 C45.7823489,18.8816253 45.8479113,19.000806 45.6169529,19.7527282 C44.6581033,22.8759861 43.6999988,25.9999663 42.7411492,29.1225019 C42.7053879,29.2380711 42.6785669,29.3586964 42.6234349,29.465598 C42.487095,29.7277956 42.2598618,29.829641 41.9715364,29.7386302 C41.6981115,29.6526756 41.5826324,29.4475403 41.6176486,29.1737857 C41.6325492,29.0553273 41.6772508,28.9404804 41.7130121,28.8249111 C42.6107695,25.8988432 43.5077818,22.972053 44.4077743,20.0467074 C44.4472607,19.9203035 44.510588,19.8011228 44.5575247,19.6891651" id="Fill-1" fill="#FFFFFF" mask="url(#mask-2)"></path>
            </g>
        </g>
    </g>
</svg>