<?xml version="1.0" encoding="UTF-8"?>
<svg width="24px" height="24px" viewBox="0 0 24 24" version="1.1" xmlns="http://www.w3.org/2000/svg" xmlns:xlink="http://www.w3.org/1999/xlink">
    <!-- Generator: Sketch 45.1 (43504) - http://www.bohemiancoding.com/sketch -->
    <title>Icon/Notification</title>
    <desc>Created with Sketch.</desc>
    <defs></defs>
    <g id="Symbols" stroke="none" stroke-width="1" fill="none" fill-rule="evenodd">
        <g id="Icon/Notification">
            <g id="Page-1" transform="translate(4.000000, 1.000000)" stroke="#FFFFFF" stroke-width="0.894">
                <path d="M7.9209,2.5717 L7.9209,1.9467 C7.9209,1.1217 8.5959,0.4467 9.4209,0.4467 C10.2459,0.4467 10.9209,1.1217 10.9209,1.9467 L10.9209,2.5467" id="Stroke-1"></path>
                <path d="M11.4209,19.4472 C11.4209,20.5512 10.5249,21.4472 9.4209,21.4472 C8.3169,21.4472 7.4209,20.5512 7.4209,19.4472" id="Stroke-3"></path>
                <path d="M18.3389,17.4491 C16.5789,14.4471 15.2629,11.4471 15.4209,8.4471 C15.5789,5.4471 12.7349,2.4471 9.4209,2.4471 C6.1069,2.4471 3.2469,5.1381 3.4209,8.4471 C3.5789,11.4471 2.5789,14.4471 0.5789,17.4471 C-1.4211,20.4471 20.0989,20.4501 18.3389,17.4491 Z" id="Stroke-5"></path>
            </g>
            <g id="Group-14" transform="translate(1.000000, 2.000000)">
                <ellipse id="Oval" fill="#FFFFFF" cx="6.4591451" cy="7.00261291" rx="6.4591451" ry="6.43043779"></ellipse>
                <text id="1" font-family="DINPro-Bold, DINPro" font-size="8" font-weight="bold" fill="#341D53">
                    <tspan x="4.01902362" y="10.0428031">1</tspan>
                </text>
            </g>
        </g>
    </g>
</svg>