<?xml version="1.0" encoding="UTF-8"?>
<svg width="48px" height="48px" viewBox="0 0 48 48" version="1.1" xmlns="http://www.w3.org/2000/svg" xmlns:xlink="http://www.w3.org/1999/xlink">
    <!-- Generator: Sketch 45.1 (43504) - http://www.bohemiancoding.com/sketch -->
    <title>Icon/Airbitz</title>
    <desc>Created with Sketch.</desc>
    <defs>
        <polygon id="path-1" points="45.4961231 0.162601615 45.4961231 22.1697983 0 22.1697983 0 0.16211665 45.4961231 0.16211665 0.000113785992 0.162601615 0.000113785992 22.1697664 45.4964217 22.1697664 45.4964217 0.162601615"></polygon>
        <polygon id="path-3" points="45.4961231 0.162532334 45.4961231 10.4424524 0.000105466174 10.4424524 0.000105466174 0.162532334 45.4961231 0.162532334"></polygon>
    </defs>
    <g id="Symbols" stroke="none" stroke-width="1" fill="none" fill-rule="evenodd">
        <g id="Icon/Airbitz">
            <g id="Page-1" transform="translate(1.000000, 12.000000)">
                <g id="Group-3" transform="translate(0.000000, 0.530412)">
                    <mask id="mask-2" fill="white">
                        <use xlink:href="#path-1"></use>
                    </mask>
                    <g id="Clip-2"></g>
                    <path d="M33.8784338,21.6964039 C33.7291108,21.488562 33.6364031,21.3105108 33.4991108,21.177492 C30.9061262,18.6660696 27.7951108,17.1931636 24.1639415,16.8578454 C21.1654492,16.5800301 18.3134492,17.1356607 15.6419108,18.5268155 C14.2803108,19.2355563 13.0581262,20.1292762 11.9796031,21.2038187 C11.8345262,21.3479223 11.7120954,21.6236592 11.7467723,21.8079457 C11.8281569,22.2437208 12.3185877,22.2908316 12.6922492,21.9222587 C14.1911415,20.4465815 15.92428,19.30068 17.9334185,18.6390501 C22.8030492,17.0352038 27.3315723,17.7190035 31.4503415,20.7631939 C31.9535108,21.1352308 32.3873262,21.5980254 32.8812954,21.9853041 C33.0242492,22.0975387 33.2825569,22.1619696 33.4545262,22.1183228 C33.6095108,22.0802185 33.7184954,21.8654486 33.8784338,21.6964039 M39.7296338,15.8214073 C39.5484646,15.586546 39.4260338,15.3738545 39.2540646,15.2124307 C33.80908,10.0808151 27.34148,7.8181101 19.8123415,8.6896603 C14.53508,9.30002256 10.0447723,11.5641132 6.25791077,15.1902609 C6.14680308,15.2962602 6.03498769,15.4064164 5.94935692,15.5318143 C5.79437231,15.7569763 5.82975692,15.9876808 6.02437231,16.1685032 C6.22111077,16.351404 6.45748,16.3486328 6.68040308,16.1996795 C6.76744923,16.140791 6.83538769,16.054883 6.91252615,15.9821383 C12.3150492,10.8588365 18.74868,8.7450848 26.1971415,9.78013726 C30.1998492,10.3364606 33.7609569,11.9624768 36.88188,14.4842913 C37.5173877,14.9976607 38.0906185,15.5837748 38.7204646,16.1040722 C38.8662492,16.2253133 39.1372954,16.2779666 39.3276646,16.2433263 C39.4663723,16.2190781 39.5696954,15.9994585 39.7296338,15.8214073 M22.3664031,0.162601615 C21.5681262,0.219411723 20.3968954,0.2727578 19.2334492,0.392613273 C15.1656338,0.812453829 11.3419723,2.01447258 7.75397231,3.9280033 C4.98406462,5.40437331 2.49228,7.24862341 0.278618462,9.4496687 C-0.0582430769,9.78567971 -0.0844276923,10.0648806 0.172464615,10.3025131 C0.413787692,10.5242111 0.688372308,10.4667082 1.01532615,10.1639519 C1.71169538,9.52172055 2.38541846,8.85177695 3.12566462,8.26081327 C11.0610185,1.93202864 20.03668,-0.173409391 30.0116031,2.08791004 C35.6115723,3.3578238 40.3814185,6.15052559 44.4400338,10.1209979 C44.5079723,10.1875073 44.5695415,10.260252 44.6459723,10.3163693 C44.8780954,10.4874924 45.1208338,10.4902636 45.32748,10.2893498 C45.5312954,10.0919 45.5567723,9.85357471 45.3706492,9.62564148 C45.2510492,9.48015217 45.1180031,9.34436216 44.9807108,9.21411459 C38.7898185,3.31833385 31.3816954,0.297006017 22.3664031,0.162601615" id="Fill-1" fill="#FFFFFF" mask="url(#mask-2)"></path>
                </g>
                <g id="Group-6" transform="translate(0.000000, 0.530412)">
                    <mask id="mask-4" fill="white">
                        <use xlink:href="#path-3"></use>
                    </mask>
                    <g id="Clip-5"></g>
                    <path d="M22.3666862,0.162532334 C31.3812708,0.296936737 38.7901015,3.31826457 44.9809938,9.21404531 C45.1175785,9.34429288 45.2513323,9.48008289 45.3709323,9.6255722 C45.5570554,9.85350543 45.5308708,10.0918308 45.3270554,10.2892805 C45.1204092,10.4901943 44.8783785,10.4874231 44.6455477,10.3163 C44.5698246,10.2601827 44.5075477,10.187438 44.4396092,10.1209286 C40.3817015,6.1504563 35.6118554,3.35775452 30.0118862,2.08784076 C20.0369631,-0.173478672 11.0605938,1.93195936 3.12594769,8.26074398 C2.38570154,8.85170767 1.71127077,9.52165127 1.01560923,10.1645754 C0.687947692,10.4666389 0.413363077,10.5241418 0.172747692,10.3024439 C-0.0848523077,10.0648113 -0.05796,9.78561043 0.278901538,9.44959942 C2.49256308,7.24924694 4.98434769,5.40430403 7.75425538,3.92793402 C11.3422554,2.0144033 15.1652092,0.812384548 19.2330246,0.392543992 C20.3971785,0.27268852 21.5684092,0.219342442 22.3666862,0.162532334" id="Fill-4" fill="#FFFFFF" mask="url(#mask-4)"></path>
                </g>
                <path d="M39.7293508,16.3514733 C39.5694123,16.5302173 39.4667969,16.7491441 39.3280892,16.7733923 C39.1370123,16.8080326 38.8659662,16.7553793 38.7201815,16.6341383 C38.0910431,16.1138408 37.5171046,15.5284196 36.8823046,15.0143574 C33.7606738,12.4932356 30.1995662,10.8665267 26.1968585,10.3102033 C18.7491046,9.27515082 12.3154738,11.3895953 6.91295077,16.5122044 C6.83581231,16.5856418 6.76787385,16.6715498 6.68082769,16.7304383 C6.45719692,16.8793917 6.22082769,16.8821629 6.02408923,16.6985692 C5.83018154,16.5177468 5.79479692,16.2870424 5.94978154,16.0618803 C6.03541231,15.9364824 6.14722769,15.8263262 6.25762769,15.7210197 C10.0451969,12.0941792 14.5347969,9.83078139 19.8120585,9.21972632 C27.3411969,8.34817613 33.8095046,10.611574 39.2537815,15.7424967 C39.4257508,15.9039205 39.5481815,16.116612 39.7293508,16.3514733" id="Fill-7" fill="#FFFFFF"></path>
                <path d="M33.8784338,22.2268163 C33.7184954,22.395861 33.6095108,22.6106309 33.4545262,22.6487353 C33.2825569,22.6923821 33.0242492,22.6279511 32.8812954,22.5157165 C32.3873262,22.1284378 31.9535108,21.6656433 31.4503415,21.2936063 C27.3315723,18.2494159 22.8030492,17.5656162 17.9334185,19.1694625 C15.92428,19.8310925 14.1911415,20.9769939 12.6922492,22.4526711 C12.3185877,22.821244 11.8281569,22.7741332 11.7467723,22.3383581 C11.7120954,22.1540716 11.8345262,21.8783348 11.9796031,21.7342311 C13.0581262,20.6596887 14.2803108,19.7659687 15.6419108,19.0572279 C18.3134492,17.6660731 21.1654492,17.1104425 24.1639415,17.3882578 C27.7951108,17.723576 30.9061262,19.196482 33.4991108,21.7079044 C33.6364031,21.8409232 33.7291108,22.0189744 33.8784338,22.2268163" id="Fill-9" fill="#FFFFFF"></path>
            </g>
        </g>
    </g>
</svg>