<?xml version="1.0" encoding="UTF-8"?>
<svg width="48px" height="48px" viewBox="0 0 48 48" version="1.1" xmlns="http://www.w3.org/2000/svg" xmlns:xlink="http://www.w3.org/1999/xlink">
    <!-- Generator: Sketch 45.1 (43504) - http://www.bohemiancoding.com/sketch -->
    <title>Icon/Keystore</title>
    <desc>Created with Sketch.</desc>
    <defs>
        <polygon id="path-1" points="32.8041276 45.8657276 32.8041276 0.000237931034 0 0.000237931034 0 45.8657276 32.8041276 45.8657276"></polygon>
    </defs>
    <g id="Symbols" stroke="none" stroke-width="1" fill="none" fill-rule="evenodd">
        <g id="Icon/Keystore">
            <g id="Page-1" transform="translate(7.000000, 1.000000)">
                <mask id="mask-2" fill="white">
                    <use xlink:href="#path-1"></use>
                </mask>
                <g id="Clip-2"></g>
                <path d="M22.2324588,10.3902103 L30.8183199,10.3902103 C27.9668378,7.58262414 25.091996,4.75203793 22.2324588,1.93652069 L22.2324588,10.3902103 Z M31.7293443,11.4783483 C31.5666326,11.4783483 31.4224475,11.4783483 31.2790679,11.4775552 C28.1682136,11.4775552 25.0573593,11.4791414 21.9473106,11.4775552 C21.3262674,11.4767621 21.1675832,11.3157621 21.1675832,10.7050724 C21.1667777,7.6429 21.1667777,4.57993448 21.1667777,1.51696897 L21.1667777,1.08393448 L1.07510544,1.08393448 L1.07510544,44.7823483 L31.7293443,44.7823483 L31.7293443,11.4783483 Z M-0.000241651032,22.8990379 L-0.000241651032,0.831727586 C-0.000241651032,0.156003448 0.151998499,0.0053137931 0.837481926,0.0053137931 C7.69634371,0.00452068966 14.5552055,0.0069 21.4132618,-0.000237931034 C21.7725163,-0.00103103448 22.0343049,0.113968966 22.2864275,0.362210345 C25.6671255,3.70196897 29.0526564,7.03617586 32.4454369,10.364831 C32.698365,10.6130724 32.8046914,10.8676586 32.8046914,11.222969 C32.7958309,22.4977276 32.7974419,33.7716931 32.7974419,45.0464517 C32.7974419,45.7245552 32.6524513,45.8657276 31.9540798,45.8657276 L0.835065416,45.8657276 C0.145554472,45.8657276 -0.000241651032,45.7213828 -0.000241651032,45.0393138 L-0.000241651032,22.8990379 Z" id="Fill-1" fill="#FFFFFF" mask="url(#mask-2)"></path>
            </g>
        </g>
    </g>
</svg>