<?xml version="1.0" encoding="UTF-8"?>
<svg width="48px" height="48px" viewBox="0 0 48 48" version="1.1" xmlns="http://www.w3.org/2000/svg" xmlns:xlink="http://www.w3.org/1999/xlink">
    <!-- Generator: Sketch 45.1 (43504) - http://www.bohemiancoding.com/sketch -->
    <title>Icon/uPort</title>
    <desc>Created with Sketch.</desc>
    <defs></defs>
    <g id="Symbols" stroke="none" stroke-width="1" fill="none" fill-rule="evenodd">
        <g id="Icon/uPort" fill="#FFFFFF">
            <path d="M35.9318509,34.160113 C37.2515871,33.3147126 37.3947425,32.2784384 36.1369691,31.4921519 C34.9368851,30.7407641 33.5637327,30.2635793 32.258953,29.6802744 C31.9961453,29.5627588 31.7034245,29.5093426 31.3416188,29.4010858 C31.6122609,28.9132178 31.8166669,28.4816149 32.0844601,28.0941694 C32.159955,27.9844882 32.3736198,27.888339 32.5253218,27.888339 C32.5509616,27.888339 32.5751769,27.8911879 32.5965434,27.8975978 C34.3927521,28.4011345 36.1547745,29.002957 37.5571278,30.3070245 C39.2208643,31.8546699 39.1581893,33.8866221 37.4175334,35.3680313 C35.7694656,36.7703846 33.7709876,37.4341699 31.71482,37.8800171 C29.0981384,38.4476533 26.4800325,38.7524817 23.8683364,38.7524817 C20.9582219,38.7524817 18.0552295,38.3735828 15.1750281,37.5580955 C13.621685,37.1165216 12.081874,36.3743925 10.7521668,35.4570583 C8.6959992,34.0390363 8.71665347,31.7585207 10.6161335,30.1353805 C11.9914226,28.9609363 13.6608569,28.3683726 15.3765852,27.9054322 C15.3951028,27.9004467 15.4157571,27.89831 15.438548,27.89831 C15.6023577,27.89831 15.8402378,28.0265089 15.936387,28.1568444 C16.1963458,28.5129524 16.3843708,28.9224766 16.5389217,29.2009531 C14.9058104,29.982254 13.3111588,30.6033064 11.8703459,31.4743465 C10.6047381,32.2414031 10.7421957,33.312576 12.0412777,34.1366099 C13.8438964,32.296956 16.2718407,32.0612125 18.620729,31.6531127 C18.6513543,31.6488394 18.683404,31.6459906 18.716166,31.6459906 C18.9996279,31.6459906 19.3315206,31.8368645 19.6071482,31.9821565 C21.0444,32.7428032 22.5129894,33.150903 23.9887009,33.150903 C25.1503252,33.150903 26.3176472,32.8980663 27.4749982,32.3639043 C28.3054421,31.9807321 29.0746353,31.7656429 29.8830005,31.7656429 C30.2911002,31.7656429 30.709171,31.8211957 31.1493205,31.9365747 C32.8892642,32.395954 34.6669553,32.7235734 35.9318509,34.160113 M23.9943987,31.3304789 L23.9879887,31.3304789 C20.0173846,31.3269178 16.7589964,28.0934572 16.7532987,24.1506295 C16.747601,20.2013918 20.0344778,16.9195006 23.9751688,16.9195006 L24.0463904,16.9195006 C28.0048869,16.9593847 31.2490307,20.2270316 31.2376353,24.1641616 C31.226952,28.0963061 27.9571684,31.3304789 23.9943987,31.3304789 M23.9765933,2 C23.668916,2 23.3640875,2.09187586 23.0863233,2.28346196 C22.6618425,2.57618274 22.333511,3.04553307 22.0429269,3.48924363 C15.2377031,13.8662306 8.44458696,24.251052 1.64719755,34.6337367 C0.53898947,36.3280985 0.828861378,37.2838924 2.71124824,37.9953961 C9.43314275,40.5337339 16.1571739,43.0642373 22.8840539,45.5918919 C23.2444352,45.7272129 23.6254708,45.8062689 23.9901254,45.9095402 C24.3718731,45.8041322 24.7265567,45.7350473 25.0584494,45.6096973 C31.8387456,43.0571152 38.6183296,40.5031086 45.3929281,37.9377066 C47.1307351,37.2796191 47.4334269,36.2903511 46.4256413,34.7505401 C41.7613388,27.6283802 37.0984607,20.5055081 32.4341581,13.382636 C30.1678869,9.92340289 27.9058889,6.45989653 25.6303588,3.00707341 C25.2044536,2.36180572 24.5869624,2 23.9765933,2 M29.7882757,30.0541878 L31.0375026,30.4259646 C31.1685503,30.4651365 31.2903393,30.496474 31.4064305,30.5270993 C31.5773623,30.5733933 31.7262155,30.6125652 31.8230768,30.6552981 C32.1969902,30.8226689 32.5758891,30.9814931 32.9555003,31.1403172 C33.8949131,31.5334605 34.7809098,31.9031006 35.5707574,32.3973784 C35.8171841,32.5519293 35.9033622,32.6665961 35.9282898,32.6972214 C34.7054149,31.7449886 33.2574798,31.3746363 31.9512757,31.040607 C31.7746461,30.9957374 31.5980166,30.9501556 31.4220992,30.9045737 C30.8957716,30.7649794 30.3922349,30.6973189 29.8830005,30.6973189 C29.5667766,30.6973189 29.2526893,30.7236709 28.9343288,30.7770871 C29.2348839,30.5548757 29.5204825,30.3141467 29.7882757,30.0541878 M17.8921321,29.7386762 C18.1727452,30.0406557 18.4761492,30.3212688 18.798783,30.5798032 C18.7710066,30.5783788 18.7439424,30.5776666 18.716166,30.5776666 C18.6221535,30.5776666 18.5281409,30.5847888 18.4384017,30.6011697 C18.2112048,30.6403416 17.9840079,30.6773768 17.7560988,30.7158365 C15.8893807,31.0256505 13.8082856,31.370363 12.0683419,32.6915237 C12.1011039,32.6388197 12.2001019,32.5248651 12.4237377,32.3895441 C13.3667117,31.8183469 14.396576,31.353982 15.4869787,30.8611286 C15.9848176,30.6367805 16.490491,30.4081592 17.0004376,30.1652935 L17.8921321,29.7386762 M16.2120145,27.0336798 C15.9677245,26.9047687 15.695658,26.8299861 15.438548,26.8299861 C15.3217446,26.8299861 15.2070778,26.8449426 15.0973965,26.8741434 C13.4279622,27.324264 11.5085401,27.9681072 9.92172292,29.3234542 C8.70169693,30.3661384 8.06711248,31.6823136 8.13690965,33.0276896 C8.20314574,34.3139517 8.91678616,35.4891081 10.1453587,36.3366451 C11.6018404,37.3422941 13.2413617,38.1200339 14.8844439,38.585111 C17.7767531,39.4048716 20.7993977,39.8208057 23.8683364,39.8208057 C26.4814569,39.8208057 29.1978487,39.5188261 31.9413047,38.9234136 C33.7816708,38.5245726 36.1476523,37.8522407 38.1098074,36.1820942 C39.1938001,35.2597745 39.8048814,34.0831937 39.8333701,32.8688654 C39.8597221,31.6652204 39.3091791,30.4779564 38.2850125,29.5242991 C36.6640089,28.0165379 34.6470132,27.3627236 32.8849909,26.8691579 C32.7710363,26.8371082 32.6499596,26.820015 32.526034,26.820015 C32.3073837,26.820015 32.0417271,26.8777045 31.7924515,26.9987812 C32.1214953,26.1156334 32.3031104,25.161264 32.3059593,24.1670105 C32.3187792,19.6273458 28.6181049,15.8967584 24.0570737,15.8511766 L23.9751688,15.8511766 C21.7815436,15.8511766 19.7047218,16.7215045 18.1264511,18.3011996 C16.5488927,19.8808946 15.6814136,21.9584287 15.6849747,24.1520539 C15.6863991,25.1648251 15.8722875,26.1355755 16.2120145,27.0336798 M23.9765933,3.06832398 C24.2322788,3.06832398 24.5235751,3.26988111 24.7379522,3.59536382 C26.4907157,6.25335389 28.2342205,8.91917834 29.9791496,11.5828661 L31.5396149,13.9680775 L36.7131518,21.8679773 L45.5318102,35.3359816 C45.9897651,36.0346655 45.9370611,36.3031709 45.9213923,36.349465 C45.9064358,36.3964712 45.7910568,36.6436102 45.0147414,36.9377554 C38.2401429,39.5038696 31.4619833,42.0578761 24.6823993,44.609746 C24.5150286,44.6731333 24.3198814,44.7215639 24.0948211,44.7785412 C24.061347,44.7870878 24.0278728,44.7956344 23.9936864,44.8034688 C23.9651978,44.7970588 23.935997,44.7892245 23.9075083,44.7813901 C23.6731893,44.7215639 23.4524023,44.6638744 23.260104,44.5912284 C16.5346484,42.0649983 9.80990501,39.5344949 3.08872271,36.9954449 C2.19560386,36.6585667 2.08663482,36.3943346 2.07737601,36.3651337 C2.06740498,36.3352207 1.99760782,36.0489098 2.54174083,35.2191782 L7.42255701,27.762989 C12.5918207,19.8652259 17.7603721,11.968175 22.9367579,4.07468518 C23.1625304,3.72997264 23.4253381,3.34680044 23.6931313,3.16304871 C23.7842949,3.09894927 23.8775952,3.06832398 23.9765933,3.06832398" id="Page-1"></path>
        </g>
    </g>
</svg>